<svg xmlns="http://www.w3.org/2000/svg" viewBox="0 0 1080 1920"><defs><linearGradient id="sky" x2="0" y2="1"><stop stop-color="#3f718d"/><stop offset=".52" stop-color="#d5a76c"/><stop offset="1" stop-color="#345565"/></linearGradient><linearGradient id="water" x2="0" y2="1"><stop stop-color="#416979"/><stop offset="1" stop-color="#173b4b"/></linearGradient><linearGradient id="olive" x2="0" y2="1"><stop stop-color="#4d5b4a" stop-opacity=".18"/><stop offset="1" stop-color="#354237" stop-opacity=".32"/></linearGradient><filter id="soft"><feGaussianBlur stdDeviation="1.2"/></filter></defs><rect width="1080" height="1920" fill="url(#sky)"/><rect y="1030" width="1080" height="890" fill="url(#water)"/><path d="M0 1090 C260 1045 400 1055 590 1082 S890 1120 1080 1070" fill="none" stroke="#d4b17c" stroke-opacity=".42" stroke-width="7"/><g opacity=".96"><path d="M-80 1240 L1120 1450" stroke="#535b59" stroke-width="56"/><path d="M-80 1218 L1120 1428" stroke="#d9d0bd" stroke-width="9"/><path d="M-80 1259 L1120 1469" stroke="#263c42" stroke-width="11"/><path d="M770 485 L770 1470" stroke="#d4c7ad" stroke-width="35"/><path d="M770 485 L785 1470" stroke="#776f64" stroke-width="7"/><path d="M770 610 L1060 1417 M770 650 L1000 1407 M770 690 L940 1396 M770 730 L880 1385 M770 770 L820 1374" stroke="#d6a35c" stroke-width="5"/><path d="M770 610 L410 1302 M770 650 L470 1313 M770 690 L530 1323 M770 730 L590 1334 M770 770 L650 1344" stroke="#c8924f" stroke-width="5"/><path d="M280 770 L280 1305" stroke="#cfc4ad" stroke-width="23"/><path d="M280 820 L70 1244 M280 850 L125 1254 M280 880 L180 1263 M280 910 L235 1273" stroke="#c8924f" stroke-width="4"/><path d="M280 820 L500 1320 M280 850 L450 1311 M280 880 L400 1302 M280 910 L350 1293" stroke="#d6a35c" stroke-width="4"/></g><g fill="#9c927e" opacity=".78"><path d="M690 1450 h165 l50 180 H645z"/><path d="M205 1285 h120 l35 125 H170z"/></g><g stroke="#a6c0c8" stroke-opacity=".18" stroke-width="3"><path d="M0 1510 Q240 1460 480 1515 T1080 1510"/><path d="M0 1590 Q260 1540 520 1595 T1080 1590"/><path d="M0 1680 Q240 1630 480 1685 T1080 1680"/><path d="M0 1780 Q270 1730 540 1785 T1080 1780"/></g><rect width="1080" height="1920" fill="url(#olive)"/></svg>